{
  "accessors": [
    {
      "bufferView": 3,
      "componentType": 5126,
      "count": 14594,
      "max": [
        0.9671649932861328,
        1.8624727725982666,
        0.22024118900299072
      ],
      "min": [
        -0.9672240018844604,
        -0.002370986854657531,
        -0.17787475883960724
      ],
      "type": "VEC3"
    },
    {
      "bufferView": 3,
      "byteOffset": 175128,
      "componentType": 5126,
      "count": 14594,
      "max": [
        0.9999980330467224,
        0.9999613165855408,
        0.9999932050704956
      ],
      "min": [
        -0.9999377131462097,
        -0.9999535083770752,
        -0.9999393224716187
      ],
      "type": "VEC3"
    },
    {
      "bufferView": 4,
      "componentType": 5126,
      "count": 14594,
      "max": [
        1.0,
        0.9999855160713196,
        0.9999138116836548,
        1.0
      ],
      "min": [
        -0.9999984502792358,
        -0.9999926090240479,
        -0.9995091557502747,
        -1.0
      ],
      "type": "VEC4"
    },
    {
      "bufferView": 2,
      "componentType": 5126,
      "count": 14594,
      "max": [
        0.9949679970741272,
        0.9991490244865417
      ],
      "min": [
        0.0024250000715255737,
        0.002032000105828047
      ],
      "type": "VEC2"
    },
    {
      "bufferView": 2,
      "byteOffset": 116752,
      "componentType": 5126,
      "count": 14594,
      "max": [
        0.9949679970741272,
        0.9991490244865417
      ],
      "min": [
        0.0024250000715255737,
        0.002032000105828047
      ],
      "type": "VEC2"
    },
    {
      "bufferView": 1,
      "componentType": 5125,
      "count": 73488,
      "type": "SCALAR"
    },
    {
      "bufferView": 3,
      "byteOffset": 350256,
      "componentType": 5126,
      "count": 4710,
      "max": [
        0.10428400337696075,
        1.8676717281341553,
        0.14530327916145325
      ],
      "min": [
        -0.10637199878692627,
        1.646655797958374,
        -0.11014872789382935
      ],
      "type": "VEC3"
    },
    {
      "bufferView": 3,
      "byteOffset": 406776,
      "componentType": 5126,
      "count": 4710,
      "max": [
        0.9996982216835022,
        0.9994441866874695,
        0.9961714744567871
      ],
      "min": [
        -0.999823272228241,
        -0.9810879826545715,
        -0.9999430179595947
      ],
      "type": "VEC3"
    },
    {
      "bufferView": 4,
      "byteOffset": 233504,
      "componentType": 5126,
      "count": 4710,
      "max": [
        0.9998200535774231,
        0.9999228715896606,
        0.9990637302398682,
        1.0
      ],
      "min": [
        -0.9999068975448608,
        -0.9999489188194275,
        -0.9969683289527893,
        -1.0
      ],
      "type": "VEC4"
    },
    {
      "bufferView": 2,
      "byteOffset": 233504,
      "componentType": 5126,
      "count": 4710,
      "max": [
        0.2981700003147125,
        0.8480799794197083
      ],
      "min": [
        0.06262800097465515,
        0.25019699335098267
      ],
      "type": "VEC2"
    },
    {
      "bufferView": 1,
      "byteOffset": 293952,
      "componentType": 5125,
      "count": 13860,
      "type": "SCALAR"
    },
    {
      "bufferView": 3,
      "byteOffset": 463296,
      "componentType": 5126,
      "count": 14594,
      "max": [
        -1.0328350067138672,
        1.8624727725982666,
        0.22024118900299072
      ],
      "min": [
        -2.967223882675171,
        -0.002370986854657531,
        -0.17787475883960724
      ],
      "type": "VEC3"
    },
    {
      "bufferView": 3,
      "byteOffset": 638424,
      "componentType": 5126,
      "count": 14594,
      "max": [
        0.9999980330467224,
        0.9999613165855408,
        0.9999932050704956
      ],
      "min": [
        -0.9999377131462097,
        -0.9999535083770752,
        -0.9999393224716187
      ],
      "type": "VEC3"
    },
    {
      "bufferView": 4,
      "byteOffset": 308864,
      "componentType": 5126,
      "count": 14594,
      "max": [
        1.0,
        0.9999855160713196,
        0.9999138116836548,
        1.0
      ],
      "min": [
        -0.9999984502792358,
        -0.9999926090240479,
        -0.9995091557502747,
        -1.0
      ],
      "type": "VEC4"
    },
    {
      "bufferView": 2,
      "byteOffset": 271184,
      "componentType": 5126,
      "count": 14594,
      "max": [
        0.9949679970741272,
        0.9991490244865417
      ],
      "min": [
        0.0024250000715255737,
        0.002032000105828047
      ],
      "type": "VEC2"
    },
    {
      "bufferView": 2,
      "byteOffset": 387936,
      "componentType": 5126,
      "count": 14594,
      "max": [
        0.9949679970741272,
        0.9991490244865417
      ],
      "min": [
        0.0024250000715255737,
        0.002032000105828047
      ],
      "type": "VEC2"
    },
    {
      "bufferView": 1,
      "byteOffset": 349392,
      "componentType": 5125,
      "count": 73488,
      "type": "SCALAR"
    },
    {
      "bufferView": 3,
      "byteOffset": 813552,
      "componentType": 5126,
      "count": 4710,
      "max": [
        -1.8957159519195557,
        1.8676717281341553,
        0.14530327916145325
      ],
      "min": [
        -2.1063718795776367,
        1.646655797958374,
        -0.11014872789382935
      ],
      "type": "VEC3"
    },
    {
      "bufferView": 3,
      "byteOffset": 870072,
      "componentType": 5126,
      "count": 4710,
      "max": [
        0.9996982216835022,
        0.9994441866874695,
        0.9961714744567871
      ],
      "min": [
        -0.999823272228241,
        -0.9810879826545715,
        -0.9999430179595947
      ],
      "type": "VEC3"
    },
    {
      "bufferView": 4,
      "byteOffset": 542368,
      "componentType": 5126,
      "count": 4710,
      "max": [
        0.9998200535774231,
        0.9999228715896606,
        0.9990637302398682,
        1.0
      ],
      "min": [
        -0.9999068975448608,
        -0.9999489188194275,
        -0.9969683289527893,
        -1.0
      ],
      "type": "VEC4"
    },
    {
      "bufferView": 2,
      "byteOffset": 504688,
      "componentType": 5126,
      "count": 4710,
      "max": [
        0.2981700003147125,
        0.8480799794197083
      ],
      "min": [
        0.06262800097465515,
        0.25019699335098267
      ],
      "type": "VEC2"
    },
    {
      "bufferView": 1,
      "byteOffset": 643344,
      "componentType": 5125,
      "count": 13860,
      "type": "SCALAR"
    },
    {
      "bufferView": 5,
      "componentType": 5126,
      "count": 34,
      "max": [
        1.0,
        0.9989190101623535,
        0.3543063700199127,
        0.0,
        0.14266756176948547,
        1.0000001192092896,
        0.9961701035499573,
        0.0,
        0.9907244443893433,
        0.992378294467926,
        1.0000001192092896,
        0.0,
        0.14480967819690704,
        0.9276817440986633,
        1.5160439014434814,
        1.0
      ],
      "min": [
        -0.9998942613601685,
        -0.9984285235404968,
        -0.35392147302627563,
        0.0,
        -0.14188332855701447,
        -0.9985466003417969,
        -0.9898742437362671,
        0.0,
        -0.9905900955200195,
        -0.12760333716869354,
        0.08137625455856323,
        0.0,
        -0.1807374507188797,
        -1.859825611114502,
        -0.1451263129711151,
        1.0
      ],
      "type": "MAT4"
    },
    {
      "bufferView": 5,
      "byteOffset": 2176,
      "componentType": 5126,
      "count": 34,
      "max": [
        1.0,
        0.9989190101623535,
        0.3543063700199127,
        0.0,
        0.14266756176948547,
        1.0000001192092896,
        0.9961701035499573,
        0.0,
        0.9907244443893433,
        0.992378294467926,
        1.0000001192092896,
        0.0,
        2.0000295639038086,
        2.3539180755615234,
        2.1495132446289063,
        1.0
      ],
      "min": [
        -0.9998942613601685,
        -0.9984285235404968,
        -0.35392147302627563,
        0.0,
        -0.14188332855701447,
        -0.9985466003417969,
        -0.9898742437362671,
        0.0,
        -0.9905900955200195,
        -0.12760333716869354,
        0.08137625455856323,
        0.0,
        -2.1159238815307617,
        -2.7973108291625977,
        -0.20888762176036835,
        1.0
      ],
      "type": "MAT4"
    },
    {
      "bufferView": 0,
      "componentType": 5123,
      "count": 14594,
      "type": "VEC4"
    },
    {
      "bufferView": 4,
      "byteOffset": 617728,
      "componentType": 5126,
      "count": 14594,
      "max": [
        1.0,
        0.4975919723510742,
        0.32740095257759094,
        0.20137666165828705
      ],
      "min": [
        0.3370766341686249,
        0.0,
        0.0,
        0.0
      ],
      "type": "VEC4"
    },
    {
      "bufferView": 0,
      "byteOffset": 116752,
      "componentType": 5123,
      "count": 4710,
      "type": "VEC4"
    },
    {
      "bufferView": 4,
      "byteOffset": 851232,
      "componentType": 5126,
      "count": 4710,
      "max": [
        1.0,
        0.13441075384616852,
        0.0,
        0.0
      ],
      "min": [
        0.8655892610549927,
        0.0,
        0.0,
        0.0
      ],
      "type": "VEC4"
    },
    {
      "bufferView": 0,
      "byteOffset": 154432,
      "componentType": 5123,
      "count": 14594,
      "type": "VEC4"
    },
    {
      "bufferView": 4,
      "byteOffset": 926592,
      "componentType": 5126,
      "count": 14594,
      "max": [
        1.0,
        0.4975919723510742,
        0.32740095257759094,
        0.20137666165828705
      ],
      "min": [
        0.3370766341686249,
        0.0,
        0.0,
        0.0
      ],
      "type": "VEC4"
    },
    {
      "bufferView": 0,
      "byteOffset": 271184,
      "componentType": 5123,
      "count": 4710,
      "type": "VEC4"
    },
    {
      "bufferView": 4,
      "byteOffset": 1160096,
      "componentType": 5126,
      "count": 4710,
      "max": [
        1.0,
        0.13441075384616852,
        0.0,
        0.0
      ],
      "min": [
        0.8655892610549927,
        0.0,
        0.0,
        0.0
      ],
      "type": "VEC4"
    }
  ],
  "asset": {
    "extras": {
      "author": "ustoopia (https://sketchfab.com/ustoopia)",
      "license": "CC-BY-4.0 (http://creativecommons.org/licenses/by/4.0/)",
      "source": "https://sketchfab.com/3d-models/ambulance-driver-ehbo-netherlands-3bef070e2d144a30987c96830039cfe7",
      "title": "Ambulance driver EHBO Netherlands"
    },
    "generator": "Sketchfab-14.41.0",
    "version": "2.0"
  },
  "bufferViews": [
    {
      "buffer": 0,
      "byteLength": 308864,
      "byteStride": 8,
      "name": "shortBufferViews",
      "target": 34962
    },
    {
      "buffer": 0,
      "byteLength": 698784,
      "byteOffset": 308864,
      "name": "floatBufferViews",
      "target": 34963
    },
    {
      "buffer": 0,
      "byteLength": 542368,
      "byteOffset": 1007648,
      "byteStride": 8,
      "name": "floatBufferViews",
      "target": 34962
    },
    {
      "buffer": 0,
      "byteLength": 926592,
      "byteOffset": 1550016,
      "byteStride": 12,
      "name": "floatBufferViews",
      "target": 34962
    },
    {
      "buffer": 0,
      "byteLength": 1235456,
      "byteOffset": 2476608,
      "byteStride": 16,
      "name": "floatBufferViews",
      "target": 34962
    },
    {
      "buffer": 0,
      "byteLength": 4352,
      "byteOffset": 3712064,
      "name": "floatBufferViews"
    }
  ],
  "buffers": [
    {
      "byteLength": 3716416,
      "uri": "scene.bin"
    }
  ],
  "images": [
    {
      "uri": "textures/PackedMaterial0_baseColor.png"
    },
    {
      "uri": "textures/PackedMaterial0_normal.png"
    },
    {
      "uri": "textures/PackedMaterial1_baseColor.png"
    }
  ],
  "materials": [
    {
      "doubleSided": true,
      "name": "PackedMaterial0",
      "normalTexture": {
        "index": 1,
        "scale": 0.0,
        "texCoord": 1
      },
      "pbrMetallicRoughness": {
        "baseColorTexture": {
          "index": 0
        },
        "metallicFactor": 0.0
      }
    },
    {
      "alphaMode": "BLEND",
      "doubleSided": true,
      "name": "PackedMaterial1",
      "normalTexture": {
        "index": 1,
        "scale": 0.0
      },
      "pbrMetallicRoughness": {
        "baseColorTexture": {
          "index": 2
        },
        "metallicFactor": 0.0
      }
    }
  ],
  "meshes": [
    {
      "name": "Object_0",
      "primitives": [
        {
          "attributes": {
            "JOINTS_0": 24,
            "NORMAL": 1,
            "POSITION": 0,
            "TANGENT": 2,
            "TEXCOORD_0": 3,
            "TEXCOORD_1": 4,
            "WEIGHTS_0": 25
          },
          "indices": 5,
          "material": 0,
          "mode": 4
        }
      ]
    },
    {
      "name": "Object_1",
      "primitives": [
        {
          "attributes": {
            "JOINTS_0": 26,
            "NORMAL": 7,
            "POSITION": 6,
            "TANGENT": 8,
            "TEXCOORD_0": 9,
            "TEXCOORD_1": 9,
            "WEIGHTS_0": 27
          },
          "indices": 10,
          "material": 1,
          "mode": 4
        }
      ]
    },
    {
      "name": "Object_2",
      "primitives": [
        {
          "attributes": {
            "JOINTS_0": 28,
            "NORMAL": 12,
            "POSITION": 11,
            "TANGENT": 13,
            "TEXCOORD_0": 14,
            "TEXCOORD_1": 15,
            "WEIGHTS_0": 29
          },
          "indices": 16,
          "material": 0,
          "mode": 4
        }
      ]
    },
    {
      "name": "Object_3",
      "primitives": [
        {
          "attributes": {
            "JOINTS_0": 30,
            "NORMAL": 18,
            "POSITION": 17,
            "TANGENT": 19,
            "TEXCOORD_0": 20,
            "TEXCOORD_1": 20,
            "WEIGHTS_0": 31
          },
          "indices": 21,
          "material": 1,
          "mode": 4
        }
      ]
    }
  ],
  "nodes": [
    {
      "children": [
        1
      ],
      "matrix": [
        1.0,
        0.0,
        0.0,
        0.0,
        0.0,
        2.220446049250313e-16,
        -1.0,
        0.0,
        0.0,
        1.0,
        2.220446049250313e-16,
        0.0,
        0.0,
        0.0,
        0.0,
        1.0
      ],
      "name": "Sketchfab_model"
    },
    {
      "children": [
        2
      ],
      "name": "root"
    },
    {
      "children": [
        3,
        42
      ],
      "matrix": [
        1.0,
        0.0,
        0.0,
        0.0,
        0.0,
        2.220446049250313e-16,
        1.0,
        0.0,
        0.0,
        -1.0,
        2.220446049250313e-16,
        0.0,
        0.0,
        0.0,
        0.0,
        1.0
      ],
      "name": "GLTF_SceneRootNode"
    },
    {
      "children": [
        4
      ],
      "matrix": [
        1.0,
        0.0,
        0.0,
        0.0,
        0.0,
        -1.685873969314855e-07,
        0.9999999999999858,
        0.0,
        0.0,
        -0.9999999999999858,
        -1.685873969314855e-07,
        0.0,
        0.0,
        0.0,
        0.0,
        1.0
      ],
      "name": "Armature.001_34"
    },
    {
      "children": [
        5,
        7,
        8,
        6
      ],
      "name": "GLTF_created_0"
    },
    {
      "children": [
        9
      ],
      "name": "GLTF_created_0_rootJoint"
    },
    {
      "name": "FuseExport.002_33"
    },
    {
      "mesh": 0,
      "name": "Object_7",
      "skin": 0
    },
    {
      "mesh": 1,
      "name": "Object_8",
      "skin": 0
    },
    {
      "children": [
        10,
        32,
        37
      ],
      "name": "mixamorig:Hips_32",
      "rotation": [
        -0.727979838848114,
        0.045939791947603226,
        -0.018540751188993454,
        0.6838063597679138
      ],
      "scale": [
        1.0,
        1.0,
        0.9999999403953552
      ],
      "translation": [
        0.007032077759504318,
        0.009619545191526413,
        -0.9662775993347168
      ]
    },
    {
      "children": [
        11
      ],
      "name": "mixamorig:Spine_21",
      "rotation": [
        -0.0793025866150856,
        0.01018639374524355,
        -0.025190994143486023,
        0.9964801669120789
      ],
      "scale": [
        1.0000001192092896,
        1.0000001192092896,
        0.9999998807907104
      ],
      "translation": [
        -3.725290298461914e-09,
        0.11149686574935913,
        -0.014344618655741215
      ]
    },
    {
      "children": [
        12
      ],
      "name": "mixamorig:Spine1_20",
      "rotation": [
        0.0033921117428690195,
        0.017412841320037842,
        -0.03338915854692459,
        0.9992849826812744
      ],
      "scale": [
        0.9999998807907104,
        1.0,
        1.0
      ],
      "translation": [
        -3.723471309058368e-09,
        0.13115200400352478,
        1.86266646551303e-09
      ]
    },
    {
      "children": [
        13,
        16,
        24
      ],
      "name": "mixamorig:Spine2_19",
      "rotation": [
        0.003715209662914276,
        0.01620646007359028,
        -0.033985916525125504,
        0.999284029006958
      ],
      "scale": [
        0.9999998807907104,
        1.0,
        1.0
      ],
      "translation": [
        1.8189894035458565e-12,
        0.14988788962364197,
        1.862645149230957e-09
      ]
    },
    {
      "children": [
        14
      ],
      "name": "mixamorig:Neck_2",
      "rotation": [
        0.10041593015193939,
        -0.005141011904925108,
        0.0163098331540823,
        0.9947986006736755
      ],
      "scale": [
        0.9999999403953552,
        0.9999999403953552,
        1.0
      ],
      "translation": [
        1.8189894035458565e-12,
        0.1686239093542099,
        2.8848159416838826e-08
      ]
    },
    {
      "children": [
        15
      ],
      "name": "mixamorig:Head_1",
      "rotation": [
        0.006944470107555389,
        -0.013968367129564285,
        0.04646166041493416,
        0.9987983107566833
      ],
      "translation": [
        0.0,
        0.04939007759094238,
        0.02082296833395958
      ]
    },
    {
      "name": "mixamorig:HeadTop_End_0",
      "rotation": [
        -5.8207653974573503e-11,
        0.0,
        -2.1464074961841106e-10,
        1.0
      ],
      "scale": [
        1.0,
        1.0000001192092896,
        1.0000001192092896
      ],
      "translation": [
        -7.450580596923828e-09,
        0.2609713077545166,
        0.11002635210752487
      ]
    },
    {
      "children": [
        17
      ],
      "name": "mixamorig:LeftShoulder_10",
      "rotation": [
        0.6332598328590393,
        0.34299248456954956,
        -0.602959156036377,
        0.34318870306015015
      ],
      "scale": [
        0.9999998807907104,
        0.9999996423721313,
        1.0
      ],
      "translation": [
        0.06332500278949738,
        0.14471785724163055,
        -0.0031654105987399817
      ]
    },
    {
      "children": [
        18
      ],
      "name": "mixamorig:LeftArm_9",
      "rotation": [
        0.30706092715263367,
        0.11999481916427612,
        -0.0634135901927948,
        0.9419625997543335
      ],
      "scale": [
        1.0,
        1.0,
        1.0000001192092896
      ],
      "translation": [
        3.831057782122116e-08,
        0.13469736278057098,
        -1.078728075754043e-07
      ]
    },
    {
      "children": [
        19
      ],
      "name": "mixamorig:LeftForeArm_8",
      "rotation": [
        0.01380988024175167,
        -0.015928011387586594,
        0.10173702239990234,
        0.9945879578590393
      ],
      "translation": [
        -3.781233992583566e-09,
        0.23359283804893494,
        -4.190951585769653e-08
      ]
    },
    {
      "children": [
        20
      ],
      "name": "mixamorig:LeftHand_7",
      "rotation": [
        0.02205010876059532,
        -0.16344527900218964,
        -0.03909286856651306,
        0.9855309128761292
      ],
      "scale": [
        1.0,
        1.0,
        1.0000001192092896
      ],
      "translation": [
        1.8641927113094425e-08,
        0.30949726700782776,
        3.544311510950138e-08
      ]
    },
    {
      "children": [
        21
      ],
      "name": "mixamorig:LeftHandIndex1_6",
      "rotation": [
        0.07174862176179886,
        -0.0013233927311375737,
        -0.012320897541940212,
        0.9973457455635071
      ],
      "translation": [
        -3.4877154497792162e-09,
        0.13974972069263458,
        -7.898703557884801e-08
      ]
    },
    {
      "children": [
        22
      ],
      "name": "mixamorig:LeftHandIndex2_5",
      "rotation": [
        0.1243274137377739,
        -0.00026290572714060545,
        -0.031436946243047714,
        0.9917430877685547
      ],
      "scale": [
        1.0000001192092896,
        0.9999998807907104,
        1.0
      ],
      "translation": [
        1.862639109617703e-08,
        0.024975743144750595,
        4.237476858293121e-08
      ]
    },
    {
      "children": [
        23
      ],
      "name": "mixamorig:LeftHandIndex3_4",
      "rotation": [
        0.10801102221012115,
        -0.007954112254083157,
        0.012377536855638027,
        0.994040846824646
      ],
      "scale": [
        0.9999998211860657,
        0.9999999403953552,
        0.9999999403953552
      ],
      "translation": [
        0.00112161785364151,
        0.038788534700870514,
        0.0037486660294234753
      ]
    },
    {
      "name": "mixamorig:LeftHandIndex4_3",
      "rotation": [
        -6.577465683221817e-08,
        -3.748573362827301e-08,
        -2.9103830456733704e-08,
        1.0
      ],
      "scale": [
        1.0000001192092896,
        1.0000001192092896,
        1.0
      ],
      "translation": [
        0.003452874720096588,
        0.03435219079256058,
        0.00190061517059803
      ]
    },
    {
      "children": [
        25
      ],
      "name": "mixamorig:RightShoulder_18",
      "rotation": [
        0.5861846208572388,
        -0.3767477869987488,
        0.6364248394966125,
        0.3307751417160034
      ],
      "scale": [
        1.0000001192092896,
        1.000000238418579,
        1.0
      ],
      "translation": [
        -0.06332501769065857,
        0.1446952372789383,
        -0.002988713327795267
      ]
    },
    {
      "children": [
        26
      ],
      "name": "mixamorig:RightArm_17",
      "rotation": [
        0.419236421585083,
        -0.17305371165275574,
        -0.023722657933831215,
        0.8909155130386353
      ],
      "scale": [
        0.9999999403953552,
        0.9999998807907104,
        0.9999999403953552
      ],
      "translation": [
        -5.431338578887335e-08,
        0.13469724357128143,
        -2.398294611793972e-07
      ]
    },
    {
      "children": [
        27
      ],
      "name": "mixamorig:RightForeArm_16",
      "rotation": [
        0.015546399168670177,
        0.016477297991514206,
        -0.11279633641242981,
        0.9933598637580872
      ],
      "scale": [
        1.0000003576278687,
        1.0000003576278687,
        1.0000001192092896
      ],
      "translation": [
        -7.872176799317288e-10,
        0.23349598050117493,
        -1.0748587442321877e-07
      ]
    },
    {
      "children": [
        28
      ],
      "name": "mixamorig:RightHand_15",
      "rotation": [
        0.01636774092912674,
        0.09929504245519638,
        -0.04878251254558563,
        0.9937267303466797
      ],
      "scale": [
        0.9999999403953552,
        1.0,
        1.0
      ],
      "translation": [
        5.21523872976104e-08,
        0.30928176641464233,
        1.0244548320770264e-08
      ]
    },
    {
      "children": [
        29
      ],
      "name": "mixamorig:RightHandIndex1_14",
      "rotation": [
        0.06360934674739838,
        0.0019363114843145013,
        0.010378960520029068,
        0.9979190230369568
      ],
      "scale": [
        0.9999998807907104,
        0.9999998807907104,
        0.9999998211860657
      ],
      "translation": [
        1.8967815762493956e-08,
        0.1375633329153061,
        3.5314108970396774e-08
      ]
    },
    {
      "children": [
        30
      ],
      "name": "mixamorig:RightHandIndex2_13",
      "rotation": [
        0.19257336854934692,
        -0.0020041796378791332,
        0.06092936545610428,
        0.979387104511261
      ],
      "scale": [
        1.0,
        0.9999998807907104,
        1.0
      ],
      "translation": [
        -6.51907861026757e-09,
        0.024212654680013657,
        3.7252854134806057e-09
      ]
    },
    {
      "children": [
        31
      ],
      "name": "mixamorig:RightHandIndex3_12",
      "rotation": [
        0.1606309562921524,
        -0.004920174367725849,
        0.053531672805547714,
        0.9855495095252991
      ],
      "scale": [
        1.0000001192092896,
        1.000000238418579,
        1.0000001192092896
      ],
      "translation": [
        0.00016096420586109161,
        0.04001551866531372,
        0.0020100530236959457
      ]
    },
    {
      "name": "mixamorig:RightHandIndex4_11",
      "rotation": [
        9.273934864495459e-08,
        4.3655719039747964e-09,
        1.1845258107712198e-08,
        1.0
      ],
      "scale": [
        0.9999998807907104,
        1.0,
        1.0000001192092896
      ],
      "translation": [
        0.0013658134266734123,
        0.03615829721093178,
        7.791584357619286e-05
      ]
    },
    {
      "children": [
        33
      ],
      "name": "mixamorig:LeftUpLeg_26",
      "rotation": [
        0.0840764120221138,
        -0.0013109110295772552,
        0.9959455132484436,
        0.03196985274553299
      ],
      "scale": [
        1.0000001192092896,
        0.9999996423721313,
        1.000002145767212
      ],
      "translation": [
        0.10261091589927673,
        -0.06201356649398804,
        -0.007938524708151817
      ]
    },
    {
      "children": [
        34
      ],
      "name": "mixamorig:LeftLeg_25",
      "rotation": [
        -0.1912757307291031,
        -0.07042571902275085,
        -0.020889228209853172,
        0.9787837266921997
      ],
      "scale": [
        0.9999998211860657,
        1.0000001192092896,
        0.9999999403953552
      ],
      "translation": [
        6.384555994998209e-09,
        0.41018980741500854,
        1.2340487742790174e-08
      ]
    },
    {
      "children": [
        35
      ],
      "name": "mixamorig:LeftFoot_24",
      "rotation": [
        0.641669750213623,
        -0.040325675159692764,
        0.03332918882369995,
        0.7651947140693665
      ],
      "scale": [
        0.9999998807907104,
        0.9999996423721313,
        0.9999998211860657
      ],
      "translation": [
        2.1829777985260534e-09,
        0.4122076630592346,
        2.1672411421036486e-08
      ]
    },
    {
      "children": [
        36
      ],
      "name": "mixamorig:LeftToeBase_23",
      "rotation": [
        0.2127881795167923,
        0.0011492613703012466,
        -0.00040543096838518977,
        0.9770976305007935
      ],
      "scale": [
        0.9999997615814209,
        1.0,
        0.9999999403953552
      ],
      "translation": [
        3.7215446280214337e-09,
        0.18605713546276093,
        6.545098685251105e-09
      ]
    },
    {
      "name": "mixamorig:LeftToe_End_22",
      "rotation": [
        4.6566133171666024e-09,
        -3.376043977709742e-08,
        1.9499564629654742e-08,
        1.0
      ],
      "scale": [
        1.0,
        1.0000001192092896,
        1.000000238418579
      ],
      "translation": [
        2.3690521544494914e-08,
        0.08409154415130615,
        -4.6565934441744616e-10
      ]
    },
    {
      "children": [
        38
      ],
      "name": "mixamorig:RightUpLeg_31",
      "rotation": [
        -0.13405294716358185,
        0.13426204025745392,
        0.9756929278373718,
        0.10966747254133224
      ],
      "scale": [
        0.9999998211860657,
        1.0000004768371582,
        1.000002384185791
      ],
      "translation": [
        -0.10261091589927673,
        -0.062013447284698486,
        -0.005951612256467342
      ]
    },
    {
      "children": [
        39
      ],
      "name": "mixamorig:RightLeg_30",
      "rotation": [
        -0.17369376122951508,
        -0.014076338149607182,
        -0.008407815359532833,
        0.9846632480621338
      ],
      "scale": [
        1.0,
        0.9999998807907104,
        0.9999998807907104
      ],
      "translation": [
        4.9859899320381373e-08,
        0.4102548062801361,
        4.899572414451825e-10
      ]
    },
    {
      "children": [
        40
      ],
      "name": "mixamorig:RightFoot_29",
      "rotation": [
        0.5120818018913269,
        0.08264860510826111,
        0.050727538764476776,
        0.8534448742866516
      ],
      "scale": [
        0.9999999403953552,
        1.0,
        1.0000001192092896
      ],
      "translation": [
        1.3725022007804455e-08,
        0.41317102313041687,
        -1.4108998414030793e-08
      ]
    },
    {
      "children": [
        41
      ],
      "name": "mixamorig:RightToeBase_28",
      "rotation": [
        0.19932492077350616,
        -0.00025871105026453733,
        -0.0012723630061373115,
        0.9799326062202454
      ],
      "scale": [
        0.9999998807907104,
        0.9999999403953552,
        0.9999999403953552
      ],
      "translation": [
        -1.3079080929401243e-08,
        0.19519904255867004,
        5.337944308791975e-09
      ]
    },
    {
      "name": "mixamorig:RightToe_End_27",
      "rotation": [
        6.164191290736198e-08,
        5.4249539971351624e-08,
        -3.795139846829443e-08,
        1.0
      ],
      "scale": [
        0.9999999403953552,
        1.0000001192092896,
        1.0000001192092896
      ],
      "translation": [
        2.8463542633971883e-08,
        0.0869775265455246,
        -1.3969914114397852e-09
      ]
    },
    {
      "children": [
        43
      ],
      "matrix": [
        1.0,
        0.0,
        0.0,
        0.0,
        0.0,
        -1.685873969314855e-07,
        0.9999999999999858,
        0.0,
        0.0,
        -0.9999999999999858,
        -1.685873969314855e-07,
        0.0,
        -2.0,
        0.0,
        0.0,
        1.0
      ],
      "name": "Armature_69"
    },
    {
      "children": [
        44,
        46,
        47,
        45
      ],
      "name": "GLTF_created_1"
    },
    {
      "children": [
        48
      ],
      "name": "GLTF_created_1_rootJoint"
    },
    {
      "name": "FuseExport.001_68"
    },
    {
      "mesh": 2,
      "name": "Object_46",
      "skin": 1
    },
    {
      "mesh": 3,
      "name": "Object_47",
      "skin": 1
    },
    {
      "children": [
        49,
        71,
        76
      ],
      "name": "mixamorig:Hips_67",
      "rotation": [
        -0.707109808921814,
        -0.000324809254379943,
        -0.00034568109549582005,
        0.7071036696434021
      ],
      "scale": [
        0.9999998807907104,
        0.9999998807907104,
        1.0
      ],
      "translation": [
        6.148999818833545e-05,
        0.005857142619788647,
        -0.9934142827987671
      ]
    },
    {
      "children": [
        50
      ],
      "name": "mixamorig:Spine_56",
      "rotation": [
        -0.0639280453324318,
        -4.50391489721369e-05,
        0.0004721948062069714,
        0.9979544281959534
      ],
      "scale": [
        1.0,
        1.0000001192092896,
        1.0000001192092896
      ],
      "translation": [
        1.7462298274040222e-10,
        0.11149698495864868,
        -0.014344633556902409
      ]
    },
    {
      "children": [
        51
      ],
      "name": "mixamorig:Spine1_55",
      "rotation": [
        3.725290298461914e-08,
        1.2932019279217333e-13,
        -6.711081343424574e-13,
        1.0
      ],
      "scale": [
        0.9999999403953552,
        1.0,
        1.0
      ],
      "translation": [
        -2.7284841053187847e-11,
        0.13115200400352478,
        1.86266646551303e-09
      ]
    },
    {
      "children": [
        52,
        55,
        63
      ],
      "name": "mixamorig:Spine2_54",
      "rotation": [
        -1.3783574104309082e-07,
        4.652891438648846e-25,
        3.469446951953614e-18,
        1.0
      ],
      "scale": [
        0.9999999403953552,
        0.9999999403953552,
        1.0
      ],
      "translation": [
        1.8189894035458565e-12,
        0.14988788962364197,
        1.862645149230957e-09
      ]
    },
    {
      "children": [
        53
      ],
      "name": "mixamorig:Neck_37",
      "rotation": [
        0.06393252313137054,
        -2.8008633484884714e-14,
        -2.2963491459922214e-13,
        0.997954249382019
      ],
      "scale": [
        1.0,
        0.9999999403953552,
        1.0
      ],
      "translation": [
        1.6370904631912708e-11,
        0.1686239093542099,
        2.60770320892334e-08
      ]
    },
    {
      "children": [
        54
      ],
      "name": "mixamorig:Head_36",
      "rotation": [
        1.3322676295501878e-15,
        0.0,
        -8.05395777145678e-19,
        1.0
      ],
      "translation": [
        1.4551915228366852e-11,
        0.04939007759094238,
        0.020822983235120773
      ]
    },
    {
      "name": "mixamorig:HeadTop_End_35",
      "rotation": [
        1.3322676295501878e-15,
        0.0,
        -8.05395777145678e-19,
        1.0
      ],
      "translation": [
        1.4551915228366852e-11,
        0.26097142696380615,
        0.11002635210752487
      ]
    },
    {
      "children": [
        56
      ],
      "name": "mixamorig:LeftShoulder_45",
      "rotation": [
        0.5653432011604309,
        0.41447052359580994,
        -0.5938041806221008,
        0.3949657678604126
      ],
      "scale": [
        0.9999997019767761,
        0.9999996423721313,
        0.9999999403953552
      ],
      "translation": [
        0.06332504749298096,
        0.1447179615497589,
        -0.0031654126942157745
      ]
    },
    {
      "children": [
        57
      ],
      "name": "mixamorig:LeftArm_44",
      "rotation": [
        -0.17482046782970428,
        0.0030505903996527195,
        0.024236056953668594,
        0.9842973351478577
      ],
      "scale": [
        1.0000001192092896,
        0.9999998807907104,
        1.000000238418579
      ],
      "translation": [
        8.364095194224319e-09,
        0.1346973329782486,
        -1.0008883322143447e-07
      ]
    },
    {
      "children": [
        58
      ],
      "name": "mixamorig:LeftForeArm_43",
      "rotation": [
        -3.9894246128824307e-07,
        -0.004070749040693045,
        4.239881832290848e-07,
        0.9999917149543762
      ],
      "scale": [
        1.0,
        0.9999997019767761,
        1.0
      ],
      "translation": [
        -3.143446747344569e-08,
        0.23359282314777374,
        -1.6007497549708205e-07
      ]
    },
    {
      "children": [
        59
      ],
      "name": "mixamorig:LeftHand_42",
      "rotation": [
        1.4376869330590125e-06,
        0.00011989669292233884,
        -3.267372221671394e-07,
        1.0
      ],
      "scale": [
        0.9999999403953552,
        1.0,
        1.0
      ],
      "translation": [
        5.052138263295092e-08,
        0.309497207403183,
        -2.316004241720293e-07
      ]
    },
    {
      "children": [
        60
      ],
      "name": "mixamorig:LeftHandIndex1_41",
      "rotation": [
        -9.435605079488596e-07,
        -9.554663847666234e-05,
        2.87309420698989e-09,
        1.0
      ],
      "scale": [
        0.9999999403953552,
        0.9999998807907104,
        1.0
      ],
      "translation": [
        -4.1322061328230575e-09,
        0.13974955677986145,
        -3.623597990554117e-07
      ]
    },
    {
      "children": [
        61
      ],
      "name": "mixamorig:LeftHandIndex2_40",
      "rotation": [
        -0.04750801995396614,
        -1.56712999910269e-07,
        0.01412330660969019,
        0.9987710118293762
      ],
      "scale": [
        0.9999999403953552,
        0.9999997615814209,
        0.9999999403953552
      ],
      "translation": [
        1.8626414188815943e-08,
        0.024975743144750595,
        -1.3643916929595434e-07
      ]
    },
    {
      "children": [
        62
      ],
      "name": "mixamorig:LeftHandIndex3_39",
      "rotation": [
        0.019853321835398674,
        -0.004024627152830362,
        0.036305688321590424,
        0.999135434627533
      ],
      "scale": [
        1.0,
        1.0000001192092896,
        1.0
      ],
      "translation": [
        0.0011216029524803162,
        0.03878841549158096,
        0.0037486064247787
      ]
    },
    {
      "name": "mixamorig:LeftHandIndex4_38",
      "rotation": [
        -6.111804395914078e-08,
        -3.748573362827301e-08,
        -2.7241185307502747e-08,
        1.0
      ],
      "scale": [
        1.0000001192092896,
        1.0000001192092896,
        1.0
      ],
      "translation": [
        0.003452889621257782,
        0.03435207158327103,
        0.0019004996865987778
      ]
    },
    {
      "children": [
        64
      ],
      "name": "mixamorig:RightShoulder_53",
      "rotation": [
        0.5662834644317627,
        -0.4137653112411499,
        0.5931292176246643,
        0.39537209272384644
      ],
      "scale": [
        1.0,
        1.000000238418579,
        1.0000001192092896
      ],
      "translation": [
        -0.06332509219646454,
        0.14469507336616516,
        -0.0029887165874242783
      ]
    },
    {
      "children": [
        65
      ],
      "name": "mixamorig:RightArm_52",
      "rotation": [
        -0.17507269978523254,
        -0.001429400173947215,
        -0.023116599768400192,
        0.9842830896377563
      ],
      "scale": [
        0.9999999403953552,
        0.9999998211860657,
        0.9999999403953552
      ],
      "translation": [
        -9.34466726221217e-09,
        0.13469728827476501,
        -4.062674641147623e-09
      ]
    },
    {
      "children": [
        66
      ],
      "name": "mixamorig:RightForeArm_51",
      "rotation": [
        2.452993612678256e-07,
        0.0033250399865210056,
        -2.6320188339923334e-07,
        0.9999944567680359
      ],
      "scale": [
        1.000000238418579,
        1.0000004768371582,
        1.0000001192092896
      ],
      "translation": [
        2.059763914985524e-08,
        0.2334960550069809,
        -5.648926659773679e-08
      ]
    },
    {
      "children": [
        67
      ],
      "name": "mixamorig:RightHand_50",
      "rotation": [
        -4.619714673026465e-07,
        0.00016771092487033457,
        7.560812775864179e-08,
        1.0
      ],
      "scale": [
        0.9999998211860657,
        1.0,
        0.9999998807907104
      ],
      "translation": [
        1.49022767459428e-08,
        0.30928176641464233,
        1.0244548320770264e-08
      ]
    },
    {
      "children": [
        68
      ],
      "name": "mixamorig:RightHandIndex1_49",
      "rotation": [
        9.729398016133928e-07,
        0.0007608711603097618,
        4.4598547788154974e-07,
        0.9999997019767761
      ],
      "scale": [
        1.0,
        0.9999998807907104,
        0.9999998211860657
      ],
      "translation": [
        3.04609493184671e-08,
        0.13756339251995087,
        3.8497574905704823e-08
      ]
    },
    {
      "children": [
        69
      ],
      "name": "mixamorig:RightHandIndex2_48",
      "rotation": [
        -0.024976151064038277,
        -5.260428679321194e-07,
        0.0024973233230412006,
        0.9996849298477173
      ],
      "scale": [
        0.9999999403953552,
        0.9999998211860657,
        0.9999998807907104
      ],
      "translation": [
        -2.1420191842480563e-08,
        0.024212714284658432,
        3.725296959800062e-09
      ]
    },
    {
      "children": [
        70
      ],
      "name": "mixamorig:RightHandIndex3_47",
      "rotation": [
        0.023580137640237808,
        -0.0009583764476701617,
        0.016809972003102303,
        0.9995802044868469
      ],
      "translation": [
        0.0001609940081834793,
        0.040015459060668945,
        0.002010134980082512
      ]
    },
    {
      "name": "mixamorig:RightHandIndex4_46",
      "rotation": [
        7.900234066937628e-08,
        8.09086575515039e-09,
        1.1845258995890617e-08,
        1.0
      ],
      "scale": [
        0.9999998807907104,
        0.9999999403953552,
        1.0000001192092896
      ],
      "translation": [
        0.001365835778415203,
        0.03615829721093178,
        7.788604125380516e-05
      ]
    },
    {
      "children": [
        72
      ],
      "name": "mixamorig:LeftUpLeg_61",
      "rotation": [
        -0.000117596733616665,
        0.01039915531873703,
        -0.9998641014099121,
        0.012792499735951424
      ],
      "scale": [
        1.0000003576278687,
        0.9999996423721313,
        1.0000020265579224
      ],
      "translation": [
        0.10261092334985733,
        -0.06201350688934326,
        -0.007938525639474392
      ]
    },
    {
      "children": [
        73
      ],
      "name": "mixamorig:LeftLeg_60",
      "rotation": [
        -0.009285814128816128,
        -0.00015833934594411403,
        -0.02456180937588215,
        0.9996551871299744
      ],
      "scale": [
        1.0,
        1.0000001192092896,
        1.0
      ],
      "translation": [
        -3.991229569066945e-09,
        0.41018974781036377,
        6.038590072421357e-09
      ]
    },
    {
      "children": [
        74
      ],
      "name": "mixamorig:LeftFoot_59",
      "rotation": [
        0.5225854516029358,
        -0.042408980429172516,
        0.021923257037997246,
        0.8512492775917053
      ],
      "scale": [
        0.9999998807907104,
        0.9999997019767761,
        0.9999997019767761
      ],
      "translation": [
        2.8279467656489032e-09,
        0.4122076630592346,
        1.4953860372202143e-08
      ]
    },
    {
      "children": [
        75
      ],
      "name": "mixamorig:LeftToeBase_58",
      "rotation": [
        0.21064935624599457,
        0.0013350053923204541,
        -0.0002877102524507791,
        0.9775607585906982
      ],
      "scale": [
        0.9999998807907104,
        1.0000001192092896,
        0.9999999403953552
      ],
      "translation": [
        3.734561992985164e-09,
        0.18605715036392212,
        1.1310913095030628e-08
      ]
    },
    {
      "name": "mixamorig:LeftToe_End_57",
      "rotation": [
        4.656612428988183e-09,
        -3.5157423639020635e-08,
        3.440072759985924e-08,
        1.0
      ],
      "scale": [
        1.0,
        1.0,
        1.000000238418579
      ],
      "translation": [
        8.789358574290418e-09,
        0.08409155905246735,
        -4.6565987177338286e-10
      ]
    },
    {
      "children": [
        77
      ],
      "name": "mixamorig:RightUpLeg_66",
      "rotation": [
        -0.0003783141728490591,
        0.005842582788318396,
        0.9999127984046936,
        0.011836589314043522
      ],
      "scale": [
        1.0,
        1.0,
        1.0000025033950806
      ],
      "translation": [
        -0.10261091589927673,
        -0.06201350688934326,
        -0.005951613653451204
      ]
    },
    {
      "children": [
        78
      ],
      "name": "mixamorig:RightLeg_65",
      "rotation": [
        -0.043946392834186554,
        -0.0002809971629176289,
        0.02449061907827854,
        0.998733639717102
      ],
      "translation": [
        2.5938492242971734e-08,
        0.41025468707084656,
        4.7702912731040215e-09
      ]
    },
    {
      "children": [
        79
      ],
      "name": "mixamorig:RightFoot_64",
      "rotation": [
        0.5491097569465637,
        0.03900793194770813,
        -0.020827485248446465,
        0.834579586982727
      ],
      "scale": [
        0.9999998211860657,
        1.0,
        0.9999999403953552
      ],
      "translation": [
        -2.5627519550930344e-10,
        0.41317102313041687,
        -3.1250944054761476e-09
      ]
    },
    {
      "children": [
        80
      ],
      "name": "mixamorig:RightToeBase_63",
      "rotation": [
        0.19932447373867035,
        -0.0002587706549093127,
        -0.0012723390245810151,
        0.9799327254295349
      ],
      "scale": [
        1.0,
        1.0000001192092896,
        1.0
      ],
      "translation": [
        1.861430787286622e-09,
        0.19519905745983124,
        7.729803463973894e-09
      ]
    },
    {
      "name": "mixamorig:RightToe_End_62",
      "rotation": [
        5.977926775813103e-08,
        5.5530108511447906e-08,
        -4.912726581096649e-08,
        1.0
      ],
      "scale": [
        1.0,
        1.0000001192092896,
        1.000000238418579
      ],
      "translation": [
        -1.3387746466975159e-09,
        0.08697757124900818,
        -1.396981752499471e-09
      ]
    }
  ],
  "samplers": [
    {
      "magFilter": 9729,
      "minFilter": 9987,
      "wrapS": 10497,
      "wrapT": 10497
    }
  ],
  "scene": 0,
  "scenes": [
    {
      "name": "Sketchfab_Scene",
      "nodes": [
        0
      ]
    }
  ],
  "skins": [
    {
      "inverseBindMatrices": 22,
      "joints": [
        5,
        9,
        10,
        11,
        12,
        13,
        14,
        15,
        16,
        17,
        18,
        19,
        20,
        21,
        22,
        23,
        24,
        25,
        26,
        27,
        28,
        29,
        30,
        31,
        32,
        33,
        34,
        35,
        36,
        37,
        38,
        39,
        40,
        41
      ],
      "skeleton": 5
    },
    {
      "inverseBindMatrices": 23,
      "joints": [
        44,
        48,
        49,
        50,
        51,
        52,
        53,
        54,
        55,
        56,
        57,
        58,
        59,
        60,
        61,
        62,
        63,
        64,
        65,
        66,
        67,
        68,
        69,
        70,
        71,
        72,
        73,
        74,
        75,
        76,
        77,
        78,
        79,
        80
      ],
      "skeleton": 44
    }
  ],
  "textures": [
    {
      "sampler": 0,
      "source": 0
    },
    {
      "sampler": 0,
      "source": 1
    },
    {
      "sampler": 0,
      "source": 2
    }
  ]
}
